<svg width="55" height="54" viewBox="0 0 55 54" fill="none" xmlns="http://www.w3.org/2000/svg">
<path d="M50.4167 15.21C50.3909 14.2608 50.3144 13.3136 50.1875 12.372C50.0164 11.5472 49.7312 10.7481 49.3396 9.99595C48.93 9.17998 48.3799 8.43621 47.7125 7.79595C47.039 7.1628 46.2656 6.63565 45.4208 6.23395C44.6363 5.86533 43.8039 5.59897 42.9458 5.44195C41.9743 5.30225 40.9946 5.22142 40.0125 5.19995H15.0104C14.0217 5.22467 13.035 5.2981 12.0542 5.41995C11.1951 5.58422 10.3627 5.85798 9.57918 6.23395C8.72921 6.62717 7.95445 7.15525 7.28751 7.79595C6.62798 8.44255 6.07886 9.18502 5.66043 9.99595C5.27645 10.7492 4.99899 11.5482 4.83543 12.372C4.6899 13.3046 4.60571 14.2451 4.58334 15.188C4.58334 15.606 4.58334 16.2 4.58334 16.3759V38.0239C4.58334 38.2659 4.58334 38.7939 4.58334 39.1899C4.60909 40.1391 4.68558 41.0863 4.81251 42.0279C4.98363 42.8527 5.26879 43.6517 5.66043 44.4039C6.07003 45.2199 6.62011 45.9637 7.28751 46.6039C7.96106 47.2371 8.73446 47.7642 9.57918 48.166C10.3638 48.5346 11.1961 48.8009 12.0542 48.9579C13.0257 49.0976 14.0054 49.1785 14.9875 49.1999H39.9896C40.9783 49.1752 41.965 49.1018 42.9458 48.9799C43.8049 48.8157 44.6373 48.5419 45.4208 48.166C46.2708 47.7727 47.0456 47.2446 47.7125 46.6039C48.372 45.9573 48.9212 45.2149 49.3396 44.4039C49.7236 43.6507 50.001 42.8517 50.1646 42.0279C50.3101 41.0953 50.3943 40.1548 50.4167 39.2119C50.4167 38.7939 50.4167 38.2659 50.4167 38.0239V16.3759C50.4167 16.2 50.4167 15.606 50.4167 15.21ZM28.0271 42.5999C25.2749 42.5869 22.5709 41.9058 20.1667 40.6199L11.4583 42.82L13.75 34.6359C12.2721 32.2521 11.4812 29.5339 11.4583 26.76C11.4675 23.6424 12.4374 20.5971 14.2458 18.0077C16.0543 15.4183 18.6205 13.4005 21.6213 12.2085C24.622 11.0165 27.923 10.7036 31.1087 11.3092C34.2943 11.9148 37.222 13.4118 39.5231 15.6117C41.8242 17.8116 43.3957 20.6159 44.0398 23.6716C44.6838 26.7272 44.3716 29.8975 43.1424 32.7831C41.9133 35.6688 39.8221 38.1407 37.1323 39.8876C34.4426 41.6345 31.2745 42.5782 28.0271 42.5999ZM28.0271 13.714C25.5975 13.7406 23.2186 14.3849 21.1327 15.5812C19.0468 16.7774 17.3284 18.483 16.1524 20.5241C14.9763 22.5652 14.3847 24.8691 14.4377 27.2011C14.4907 29.5331 15.1865 31.81 16.4542 33.7999L16.775 34.3059L15.4 39.1239L20.625 37.7599L21.1292 38.0459C23.2136 39.2246 25.5851 39.8545 28.0042 39.8719C31.6509 39.8719 35.1483 38.4812 37.7269 36.0058C40.3055 33.5303 41.7542 30.1728 41.7542 26.6719C41.7542 23.1711 40.3055 19.8136 37.7269 17.3381C35.1483 14.8627 31.6509 13.472 28.0042 13.472L28.0271 13.714ZM36.0479 32.4579C35.7478 32.9386 35.3459 33.3534 34.8682 33.6755C34.3906 33.9976 33.8478 34.2199 33.275 34.3279C32.4192 34.4781 31.5381 34.4253 30.7083 34.1739C29.9277 33.9396 29.1624 33.6605 28.4167 33.3379C25.5836 31.9732 23.1675 29.9266 21.4042 27.3979C20.446 26.2264 19.8646 24.812 19.7313 23.3279C19.7176 22.7115 19.8391 22.0991 20.0878 21.5306C20.3365 20.9622 20.7069 20.4502 21.175 20.0279C21.3129 19.8779 21.482 19.7573 21.6715 19.6739C21.861 19.5905 22.0666 19.5463 22.275 19.544H22.9167C23.1688 19.544 23.5125 19.544 23.8333 20.2259C24.1542 20.9079 25.0021 22.9539 25.1167 23.1519C25.173 23.2575 25.2024 23.3744 25.2024 23.4929C25.2024 23.6115 25.173 23.7284 25.1167 23.834C25.0154 24.073 24.8762 24.2956 24.7042 24.4939C24.4979 24.736 24.2688 25.0219 24.0854 25.198C23.9021 25.3739 23.6729 25.5939 23.9021 25.9899C24.5256 27.0002 25.2974 27.9189 26.1938 28.7179C27.1698 29.5459 28.2858 30.2081 29.4938 30.6759C29.9063 30.8739 30.1583 30.8519 30.3875 30.6759C30.6167 30.4999 31.4188 29.5319 31.6938 29.136C31.9688 28.74 32.2438 28.8059 32.6104 28.9379C32.9771 29.0699 35.0167 30.0159 35.4292 30.2139C35.8417 30.4119 36.0938 30.4999 36.2083 30.6759C36.3077 31.2517 36.2525 31.8423 36.0479 32.3919V32.4579Z" fill="white"/>
</svg>
