<svg width="47" height="45" viewBox="0 0 47 45" fill="none" xmlns="http://www.w3.org/2000/svg">
<path d="M43.8958 0.199951H3.10418C2.43561 0.199951 1.79443 0.454915 1.32168 0.908753C0.848931 1.36259 0.583344 1.97813 0.583344 2.61995V41.7799C0.583344 42.0977 0.648547 42.4124 0.775231 42.706C0.901914 42.9996 1.0876 43.2664 1.32168 43.4911C1.55576 43.7159 1.83365 43.8941 2.1395 44.0157C2.44534 44.1374 2.77314 44.1999 3.10418 44.1999H25.0583V27.1499H19.1V20.5499H25.0583V15.5999C24.9349 14.4378 25.0778 13.2638 25.4771 12.1603C25.8763 11.0568 26.5222 10.0506 27.3694 9.21206C28.2166 8.37356 29.2447 7.72316 30.3815 7.30647C31.5183 6.88979 32.7363 6.7169 33.95 6.79995C35.7337 6.78941 37.5165 6.87756 39.2896 7.06395V13.004H35.6458C32.7583 13.004 32.2083 14.3239 32.2083 16.2379V20.484H39.0833L38.1896 27.0839H32.2083V44.1999H43.8958C44.2269 44.1999 44.5547 44.1374 44.8605 44.0157C45.1664 43.8941 45.4443 43.7159 45.6783 43.4911C45.9124 43.2664 46.0981 42.9996 46.2248 42.706C46.3515 42.4124 46.4167 42.0977 46.4167 41.7799V2.61995C46.4167 2.30215 46.3515 1.98747 46.2248 1.69386C46.0981 1.40025 45.9124 1.13347 45.6783 0.908753C45.4443 0.684035 45.1664 0.505779 44.8605 0.384163C44.5547 0.262547 44.2269 0.199951 43.8958 0.199951V0.199951Z" fill="white"/>
</svg>
