<svg width="46" height="45" viewBox="0 0 46 45" fill="none" xmlns="http://www.w3.org/2000/svg">
<path d="M23 16.744C21.876 16.744 20.7771 17.0639 19.8425 17.6635C18.9079 18.263 18.1795 19.1151 17.7493 20.112C17.3191 21.109 17.2066 22.206 17.4259 23.2644C17.6452 24.3227 18.1865 25.2949 18.9813 26.0579C19.7761 26.821 20.7888 27.3406 21.8912 27.5511C22.9937 27.7616 24.1364 27.6536 25.1749 27.2406C26.2134 26.8277 27.101 26.1284 27.7255 25.2311C28.35 24.3339 28.6833 23.279 28.6833 22.1999C28.6833 21.4835 28.5363 20.774 28.2507 20.112C27.9651 19.4501 27.5465 18.8486 27.0187 18.342C26.491 17.8353 25.8645 17.4335 25.1749 17.1593C24.4854 16.8851 23.7464 16.744 23 16.744V16.744ZM45.7563 11.354C45.7442 9.65502 45.4183 7.97161 44.7938 6.38195C44.3338 5.21872 43.6221 4.16236 42.7056 3.28256C41.7892 2.40276 40.6888 1.71953 39.4771 1.27795C37.8212 0.678371 36.0677 0.365525 34.2979 0.353951C31.3417 0.199951 30.4708 0.199951 23 0.199951C15.5292 0.199951 14.6583 0.199951 11.7021 0.353951C9.93237 0.365525 8.17882 0.678371 6.52293 1.27795C5.31123 1.71953 4.21085 2.40276 3.29439 3.28256C2.37794 4.16236 1.66624 5.21872 1.20626 6.38195C0.581698 7.97161 0.255816 9.65502 0.24376 11.354C0.0833434 14.192 0.0833435 15.0279 0.0833435 22.1999C0.0833435 29.3719 0.0833434 30.2079 0.24376 33.0459C0.268427 34.7509 0.593868 36.4394 1.20626 38.0399C1.6642 39.1979 2.37531 40.2481 3.29168 41.1199C4.2042 42.005 5.30694 42.6883 6.52293 43.1219C8.17882 43.7215 9.93237 44.0344 11.7021 44.0459C14.6583 44.1999 15.5292 44.1999 23 44.1999C30.4708 44.1999 31.3417 44.1999 34.2979 44.0459C36.0677 44.0344 37.8212 43.7215 39.4771 43.1219C40.6931 42.6883 41.7958 42.005 42.7083 41.1199C43.6247 40.2481 44.3358 39.1979 44.7938 38.0399C45.4177 36.4425 45.7435 34.752 45.7563 33.0459C45.9167 30.2079 45.9167 29.3719 45.9167 22.1999C45.9167 15.0279 45.9167 14.192 45.7563 11.354V11.354ZM39.9354 28.9539C39.8619 30.3116 39.5601 31.6489 39.0417 32.914C38.5968 33.9693 37.9354 34.9279 37.0969 35.7329C36.2583 36.5379 35.2597 37.1729 34.1604 37.5999C32.8301 38.0699 31.4294 38.3299 30.0125 38.3699C28.2021 38.3699 27.7208 38.3699 23 38.3699C18.2792 38.3699 17.7979 38.3699 15.9875 38.3699C14.5706 38.3299 13.1699 38.0699 11.8396 37.5999C10.7032 37.1945 9.6769 36.5477 8.83751 35.7079C8.00716 34.9187 7.3659 33.9653 6.95834 32.914C6.46691 31.6382 6.20348 30.2919 6.17918 28.9319C6.17918 27.1939 6.17918 26.7319 6.17918 22.1999C6.17918 17.6679 6.17918 17.2059 6.17918 15.4679C6.20348 14.108 6.46691 12.7617 6.95834 11.486C7.38066 10.395 8.05439 9.40976 8.92918 8.60395C9.75494 7.81112 10.7471 7.19616 11.8396 6.79995C13.1699 6.33004 14.5706 6.07001 15.9875 6.02995V6.02995C17.7979 6.02995 18.2792 6.02995 23 6.02995C27.7208 6.02995 28.2021 6.02995 30.0125 6.02995C31.4294 6.07001 32.8301 6.33004 34.1604 6.79995C35.2969 7.20537 36.3231 7.85215 37.1625 8.69195C37.9929 9.4812 38.6341 10.4346 39.0417 11.486C39.5312 12.763 39.802 14.1078 39.8438 15.4679C39.8438 17.2059 39.8438 17.6679 39.8438 22.1999C39.8438 26.7319 40.0042 27.1939 39.9354 28.9319V28.9539ZM36.2688 12.586C35.9959 11.8753 35.5657 11.23 35.0079 10.6944C34.45 10.1589 33.7778 9.74589 33.0375 9.48395C32.0211 9.14572 30.9506 8.98189 29.875 8.99995C28.0875 8.99995 27.5833 8.99995 23 8.99995C18.4167 8.99995 17.9125 8.99995 16.125 8.99995C15.044 9.01009 13.9733 9.20374 12.9625 9.57195C12.2336 9.82199 11.5685 10.2181 11.0113 10.734C10.4542 11.2499 10.0179 11.8737 9.73126 12.5639C9.39846 13.5438 9.23587 14.5695 9.25001 15.5999C9.25001 17.3159 9.25001 17.7999 9.25001 22.1999C9.25001 26.5999 9.25001 27.0839 9.25001 28.7999C9.27273 29.8366 9.47406 30.8624 9.84584 31.8359C10.1187 32.5466 10.5489 33.1919 11.1067 33.7275C11.6646 34.263 12.3368 34.676 13.0771 34.938C14.0549 35.2832 15.0838 35.4763 16.125 35.5099V35.5099C17.9125 35.5099 18.4167 35.5099 23 35.5099C27.5833 35.5099 28.0875 35.5099 29.875 35.5099C30.9561 35.4998 32.0267 35.3062 33.0375 34.938C33.7778 34.676 34.45 34.263 35.0079 33.7275C35.5657 33.1919 35.9959 32.5466 36.2688 31.8359C36.6523 30.8656 36.854 29.8378 36.8646 28.7999C36.8646 27.0839 36.8646 26.5999 36.8646 22.1999C36.8646 17.7999 36.8646 17.3159 36.8646 15.5999C36.8653 14.5611 36.6632 13.5313 36.2688 12.5639V12.586ZM23 30.6039C21.8515 30.604 20.7142 30.3864 19.6534 29.9638C18.5926 29.5412 17.629 28.9218 16.818 28.1411C16.0069 27.3605 15.3642 26.4338 14.9268 25.4144C14.4894 24.3949 14.2657 23.3025 14.2688 22.1999V22.1999C14.2688 20.5369 14.7828 18.9112 15.7457 17.5287C16.7086 16.1462 18.0772 15.069 19.6782 14.4336C21.2791 13.7982 23.0405 13.633 24.7392 13.9591C26.438 14.2851 27.9978 15.0877 29.2212 16.2652C30.4445 17.4428 31.2765 18.9423 31.6117 20.5739C31.9469 22.2056 31.7702 23.8961 31.1041 25.4313C30.438 26.9665 29.3124 28.2775 27.8698 29.1983C26.4272 30.1191 24.7324 30.6083 23 30.6039V30.6039ZM32.1667 15.446C31.6601 15.3945 31.1913 15.1648 30.8505 14.8013C30.5098 14.4377 30.3213 13.966 30.3213 13.4769C30.3213 12.9879 30.5098 12.5162 30.8505 12.1526C31.1913 11.7891 31.6601 11.5594 32.1667 11.5079V11.5079C32.6733 11.5594 33.1421 11.7891 33.4828 12.1526C33.8235 12.5162 34.0121 12.9879 34.0121 13.4769C34.0121 13.966 33.8235 14.4377 33.4828 14.8013C33.1421 15.1648 32.6733 15.3945 32.1667 15.446Z" fill="white"/>
</svg>
