<svg width="65" height="57" viewBox="0 0 65 57" fill="none" xmlns="http://www.w3.org/2000/svg">
<g filter="url(#filter0_d_73_475)">
<path d="M10.0154 16.0745C6.7941 9.83314 3.60574 11.8053 4.03982 16.5571C4.1199 29.9591 7.43197 35.4149 18.8593 44.0552V49H30.5714C29.8544 37.7837 32.0344 32.7562 20.7715 20.7782C17.4251 18.1249 12.613 15.0198 14.0788 21.1401C15.5088 24.0811 16.4472 25.536 18.2877 26.8085C19.9193 30.0911 18.8252 30.7853 15.6325 29.2209C13.6125 26.2484 13.6494 26.9394 11.091 23.7937C10.8181 19.5541 10.6416 17.3946 10.0154 16.0745Z" fill="white"/>
</g>
<g filter="url(#filter1_d_73_475)">
<path d="M54.556 16.0745C57.7773 9.83314 60.9657 11.8053 60.5316 16.5571C60.4515 29.9591 57.1394 35.4149 45.7121 44.0552V49H34C34.7171 37.7837 32.537 32.7562 43.7999 20.7782C47.1463 18.1249 51.9584 15.0198 50.4926 21.1401C49.0626 24.0811 48.1242 25.536 46.2838 26.8085C44.6521 30.0911 45.7462 30.7853 48.9389 29.2209C50.9589 26.2484 50.922 26.9394 53.4804 23.7937C53.7533 19.5541 53.9298 17.3946 54.556 16.0745Z" fill="white"/>
</g>
<g filter="url(#filter2_d_73_475)">
<path d="M31.7377 16.4286L19.4286 4.32308L23.8503 16.4286H31.7377Z" stroke="white" stroke-linecap="round" shape-rendering="crispEdges"/>
<path d="M24.9258 3.25495L23.4918 6.45934L25.7624 8.71429L27.316 5.98462L24.9258 3.25495Z" stroke="white" stroke-linecap="round" shape-rendering="crispEdges"/>
<path d="M31.7377 1L26.7184 9.78242L33.4107 16.4286H40.9396L31.7377 1Z" stroke="white" stroke-linecap="round" shape-rendering="crispEdges"/>
<path d="M38.7885 3.37363L36.3984 6.22198L37.8324 8.5956L40.2225 6.45934L38.7885 3.37363Z" stroke="white" stroke-linecap="round" shape-rendering="crispEdges"/>
<path d="M44.2857 4.2044L38.5495 10.0198L41.4176 14.8857L44.2857 4.2044Z" stroke="white" stroke-linecap="round" shape-rendering="crispEdges"/>
</g>
<g filter="url(#filter3_d_73_475)">
<path d="M40.3763 12.1429C40.1497 15.0204 39.8895 15.6745 38.2857 16C40.0461 16.5519 40.3165 17.6544 40.5854 19.8572C40.6979 17.2006 40.8889 16.1635 42.5714 16C40.6388 15.6228 40.4521 14.652 40.3763 12.1429Z" fill="#6B85DE"/>
</g>
<g filter="url(#filter4_d_73_475)">
<path d="M18.9686 1C18.8327 2.91834 18.6766 3.35442 17.7143 3.57143C18.7705 3.93932 18.9328 4.67432 19.0941 6.14286C19.1616 4.37182 19.2762 3.68041 20.2857 3.57143C19.1261 3.31995 19.0142 2.67277 18.9686 1Z" fill="#5375EE"/>
</g>
<defs>
<filter id="filter0_d_73_475" x="0" y="12.1429" width="34.5714" height="44.8571" filterUnits="userSpaceOnUse" color-interpolation-filters="sRGB">
<feFlood flood-opacity="0" result="BackgroundImageFix"/>
<feColorMatrix in="SourceAlpha" type="matrix" values="0 0 0 0 0 0 0 0 0 0 0 0 0 0 0 0 0 0 127 0" result="hardAlpha"/>
<feOffset dy="4"/>
<feGaussianBlur stdDeviation="2"/>
<feComposite in2="hardAlpha" operator="out"/>
<feColorMatrix type="matrix" values="0 0 0 0 0 0 0 0 0 0 0 0 0 0 0 0 0 0 0.25 0"/>
<feBlend mode="normal" in2="BackgroundImageFix" result="effect1_dropShadow_73_475"/>
<feBlend mode="normal" in="SourceGraphic" in2="effect1_dropShadow_73_475" result="shape"/>
</filter>
<filter id="filter1_d_73_475" x="30" y="12.1429" width="34.5714" height="44.8571" filterUnits="userSpaceOnUse" color-interpolation-filters="sRGB">
<feFlood flood-opacity="0" result="BackgroundImageFix"/>
<feColorMatrix in="SourceAlpha" type="matrix" values="0 0 0 0 0 0 0 0 0 0 0 0 0 0 0 0 0 0 127 0" result="hardAlpha"/>
<feOffset dy="4"/>
<feGaussianBlur stdDeviation="2"/>
<feComposite in2="hardAlpha" operator="out"/>
<feColorMatrix type="matrix" values="0 0 0 0 0 0 0 0 0 0 0 0 0 0 0 0 0 0 0.25 0"/>
<feBlend mode="normal" in2="BackgroundImageFix" result="effect1_dropShadow_73_475"/>
<feBlend mode="normal" in="SourceGraphic" in2="effect1_dropShadow_73_475" result="shape"/>
</filter>
<filter id="filter2_d_73_475" x="14.9589" y="0.00842285" width="34.3008" height="24.9202" filterUnits="userSpaceOnUse" color-interpolation-filters="sRGB">
<feFlood flood-opacity="0" result="BackgroundImageFix"/>
<feColorMatrix in="SourceAlpha" type="matrix" values="0 0 0 0 0 0 0 0 0 0 0 0 0 0 0 0 0 0 127 0" result="hardAlpha"/>
<feOffset dy="4"/>
<feGaussianBlur stdDeviation="2"/>
<feComposite in2="hardAlpha" operator="out"/>
<feColorMatrix type="matrix" values="0 0 0 0 0 0 0 0 0 0 0 0 0 0 0 0 0 0 0.25 0"/>
<feBlend mode="normal" in2="BackgroundImageFix" result="effect1_dropShadow_73_475"/>
<feBlend mode="normal" in="SourceGraphic" in2="effect1_dropShadow_73_475" result="shape"/>
</filter>
<filter id="filter3_d_73_475" x="34.2857" y="12.1429" width="12.2857" height="15.7143" filterUnits="userSpaceOnUse" color-interpolation-filters="sRGB">
<feFlood flood-opacity="0" result="BackgroundImageFix"/>
<feColorMatrix in="SourceAlpha" type="matrix" values="0 0 0 0 0 0 0 0 0 0 0 0 0 0 0 0 0 0 127 0" result="hardAlpha"/>
<feOffset dy="4"/>
<feGaussianBlur stdDeviation="2"/>
<feComposite in2="hardAlpha" operator="out"/>
<feColorMatrix type="matrix" values="0 0 0 0 0 0 0 0 0 0 0 0 0 0 0 0 0 0 0.25 0"/>
<feBlend mode="normal" in2="BackgroundImageFix" result="effect1_dropShadow_73_475"/>
<feBlend mode="normal" in="SourceGraphic" in2="effect1_dropShadow_73_475" result="shape"/>
</filter>
<filter id="filter4_d_73_475" x="13.7143" y="1" width="10.5714" height="13.1429" filterUnits="userSpaceOnUse" color-interpolation-filters="sRGB">
<feFlood flood-opacity="0" result="BackgroundImageFix"/>
<feColorMatrix in="SourceAlpha" type="matrix" values="0 0 0 0 0 0 0 0 0 0 0 0 0 0 0 0 0 0 127 0" result="hardAlpha"/>
<feOffset dy="4"/>
<feGaussianBlur stdDeviation="2"/>
<feComposite in2="hardAlpha" operator="out"/>
<feColorMatrix type="matrix" values="0 0 0 0 0 0 0 0 0 0 0 0 0 0 0 0 0 0 0.25 0"/>
<feBlend mode="normal" in2="BackgroundImageFix" result="effect1_dropShadow_73_475"/>
<feBlend mode="normal" in="SourceGraphic" in2="effect1_dropShadow_73_475" result="shape"/>
</filter>
</defs>
</svg>
